<svg width="239" height="320" viewBox="0 0 239 320" fill="none" xmlns="http://www.w3.org/2000/svg">
<path d="M106.651 305.156L108.214 317.444C108.214 318.588 109.117 319.516 110.232 319.516H127.872C128.987 319.516 129.889 318.588 129.889 317.444L131.452 305.156C131.452 304.012 130.549 303.084 129.435 303.084H108.67C107.555 303.084 106.651 304.012 106.651 305.156Z" fill="#2C3792"/>
<path d="M119.052 7.12943e-05C6.65192 7.12943e-05 -28.8039 97.8485 24.0166 170.566C72.6219 237.48 111.73 290.006 111.73 290.006H113.769C113.769 290.006 85.5461 237.48 50.4688 170.566C12.3495 97.8485 37.9379 7.12943e-05 119.052 7.12943e-05Z" fill="url(#paint0_linear_18_10)"/>
<path d="M119.052 7.12943e-05C200.165 7.12943e-05 225.754 97.8485 187.634 170.566C152.557 237.48 124.334 290.006 124.334 290.006H126.373C126.373 290.006 165.481 237.48 214.087 170.566C266.908 97.8485 231.451 7.12943e-05 119.052 7.12943e-05Z" fill="url(#paint1_linear_18_10)"/>
<path d="M119.052 7.12943e-05C82.4587 7.12943e-05 70.9156 97.8485 88.1123 170.566C103.936 237.48 116.668 290.006 116.668 290.006H119.052H121.435C121.435 290.006 134.167 237.48 149.991 170.566C167.188 97.8485 155.645 7.12943e-05 119.052 7.12943e-05Z" fill="url(#paint2_linear_18_10)"/>
<defs>
<linearGradient id="paint0_linear_18_10" x1="59.5258" y1="290.006" x2="59.5258" y2="6.10352e-05" gradientUnits="userSpaceOnUse">
<stop stop-color="#ED127B"/>
<stop offset="1" stop-color="#5E2590"/>
</linearGradient>
<linearGradient id="paint1_linear_18_10" x1="178.578" y1="290.006" x2="178.578" y2="6.10352e-05" gradientUnits="userSpaceOnUse">
<stop stop-color="#ED127B"/>
<stop offset="1" stop-color="#5E2590"/>
</linearGradient>
<linearGradient id="paint2_linear_18_10" x1="119.052" y1="290.006" x2="119.052" y2="6.10352e-05" gradientUnits="userSpaceOnUse">
<stop stop-color="#ED127B"/>
<stop offset="1" stop-color="#5E2590"/>
</linearGradient>
</defs>
</svg>
