<svg width="640" height="350" viewBox="0 0 640 350" fill="none" xmlns="http://www.w3.org/2000/svg">
<g clip-path="url(#clip0_3_8)">
<path d="M601.926 114.816C599.754 122.105 596.579 128.662 592.408 134.488C588.23 140.318 583.095 144.991 577.001 148.501C570.902 152.017 563.849 153.774 555.833 153.774C547.984 153.774 540.968 152.061 534.793 148.63C528.612 145.203 523.396 140.658 519.136 135.003C514.879 129.345 511.622 122.833 509.369 115.459C507.112 108.09 505.987 100.461 505.987 92.5731C505.987 85.0328 507.069 77.6184 509.244 70.33C511.41 63.0456 514.628 56.5331 518.887 50.7868C523.144 45.0461 528.319 40.4166 534.417 36.901C540.512 33.3895 547.568 31.631 555.583 31.631C563.261 31.631 570.152 33.3019 576.248 36.6437C582.342 39.9869 587.523 44.4878 591.78 50.145C596.039 55.8023 599.336 62.3189 601.675 69.6868C604.011 77.0601 605.183 84.6907 605.183 92.5731C605.183 100.119 604.095 107.532 601.926 114.816ZM633.988 59.1441C629.982 48.0034 624.3 38.0587 616.954 29.3155C609.604 20.5724 600.754 13.5015 590.401 8.10014C580.046 2.70152 568.611 0.000152588 556.087 0.000152588C543.893 0.000152588 532.622 2.5332 522.268 7.58696C511.912 12.6462 502.938 19.4598 495.341 28.0292C487.738 36.604 481.813 46.4611 477.554 57.6018C473.297 68.7467 471.167 80.4033 471.167 92.5731C471.167 104.232 473.172 115.632 477.179 126.774C481.188 137.919 486.907 147.817 494.337 156.472C501.766 165.131 510.659 172.076 521.015 177.302C531.369 182.532 542.809 185.145 555.333 185.145C567.52 185.145 578.793 182.617 589.151 177.558C599.501 172.505 608.438 165.73 615.954 157.246C623.468 148.757 629.354 138.988 633.613 127.93C637.872 116.874 640 105.262 640 93.0876C640 81.6048 637.996 70.2903 633.988 59.1441ZM387.253 115.974H423.074V128.831C409.88 145.459 395.1 153.774 378.737 153.774C371.385 153.774 364.666 152.189 358.571 149.017C352.473 145.845 347.175 141.521 342.666 136.03C338.157 130.545 334.651 124.074 332.144 116.616C329.638 109.159 328.388 101.147 328.388 92.5731C328.388 84.3445 329.554 76.5456 331.894 69.1722C334.229 61.8044 337.489 55.2877 341.663 49.6305C345.835 43.9732 350.888 39.5175 356.818 36.2578C362.744 33.0049 369.381 31.3723 376.731 31.3723C385.915 31.3723 394.306 33.7754 401.906 38.5719C409.506 43.3752 415.474 50.3161 419.817 59.4014L445.617 39.8582C439.77 27.6884 431.089 18.0024 419.568 10.8015C408.043 3.60196 394.181 0.000152588 377.984 0.000152588C365.962 0.000152588 354.813 2.44287 344.545 7.32968C334.273 12.2151 325.339 18.8166 317.742 27.1301C310.139 35.4476 304.214 45.1296 299.955 56.1868C295.698 67.2441 293.568 79.0334 293.568 91.544C293.568 103.719 295.698 115.459 299.955 126.774C304.214 138.088 310.058 148.077 317.491 156.73C324.92 165.389 333.647 172.288 343.666 177.429C353.688 182.572 364.372 185.145 375.731 185.145C393.597 185.145 409.378 177.859 423.074 163.286V183.858H451.629V90.0017H387.253V115.974Z" fill="url(#paint0_linear_3_8)"/>
<path d="M322.983 319.516C317.406 319.516 312.061 318.56 306.95 316.653C301.839 314.747 297.377 311.886 293.567 308.067L297.053 303.201C300.956 306.829 304.999 309.499 309.181 311.215C313.365 312.934 317.965 313.792 322.983 313.792C329.303 313.792 334.39 312.433 338.249 309.714C342.104 306.993 344.035 303.201 344.035 298.335C344.035 296.045 343.544 294.113 342.57 292.539C341.595 290.966 340.13 289.63 338.18 288.531C336.225 287.436 333.807 286.458 330.929 285.6C328.047 284.739 324.702 283.833 320.891 282.879C316.8 281.927 313.246 280.97 310.228 280.018C307.204 279.064 304.721 277.919 302.768 276.582C300.818 275.246 299.353 273.624 298.377 271.715C297.401 269.809 296.913 267.375 296.913 264.417C296.913 260.698 297.609 257.455 299.003 254.685C300.398 251.921 302.325 249.631 304.79 247.818C307.251 246.006 310.087 244.644 313.294 243.74C316.501 242.834 319.915 242.378 323.541 242.378C329.208 242.378 334.227 243.359 338.597 245.312C342.964 247.269 346.354 249.773 348.772 252.826L344.87 256.69C342.452 253.827 339.316 251.68 335.46 250.25C331.602 248.818 327.49 248.102 323.123 248.102C320.426 248.102 317.894 248.39 315.524 248.961C313.154 249.534 311.085 250.443 309.321 251.68C307.554 252.921 306.159 254.521 305.138 256.473C304.114 258.43 303.605 260.744 303.605 263.417C303.605 265.611 303.954 267.375 304.652 268.712C305.347 270.047 306.463 271.193 307.996 272.146C309.531 273.099 311.504 273.935 313.92 274.651C316.337 275.367 319.218 276.152 322.564 277.013C327.118 278.155 331.161 279.254 334.695 280.303C338.224 281.354 341.175 282.643 343.544 284.169C345.916 285.694 347.727 287.509 348.984 289.605C350.237 291.705 350.864 294.376 350.864 297.619C350.864 304.299 348.331 309.618 343.267 313.577C338.202 317.537 331.438 319.516 322.983 319.516Z" fill="#2C3792"/>
<path d="M399.38 314.507C399.009 314.7 398.38 315.058 397.499 315.58C396.614 316.106 395.496 316.607 394.151 317.084C392.804 317.563 391.293 317.99 389.622 318.371C387.949 318.751 386.136 318.944 384.187 318.944C382.231 318.944 380.395 318.658 378.678 318.085C376.957 317.513 375.446 316.655 374.147 315.508C372.842 314.365 371.797 312.982 371.01 311.36C370.217 309.738 369.825 307.829 369.825 305.636V249.534H359.647V243.667H369.825V218.192H376.796V243.667H393.803V249.534H376.796V303.917C376.796 306.687 377.722 308.761 379.585 310.142C381.442 311.528 383.579 312.218 385.997 312.218C388.875 312.218 391.364 311.718 393.454 310.714C395.546 309.714 396.823 309.068 397.288 308.783L399.38 314.507Z" fill="#2C3792"/>
<path d="M433.535 319.516C418.012 319.516 410.252 308.545 410.252 286.6V243.666H417.223V285.6C417.223 303.917 423.308 313.076 435.484 313.076C438.553 313.076 441.551 312.529 444.479 311.43C447.406 310.334 450.123 308.808 452.633 306.851C455.145 304.897 457.35 302.536 459.256 299.765C461.159 297.001 462.67 293.949 463.787 290.609V243.666H470.758V308.067C470.758 310.454 471.732 311.645 473.684 311.645V318.085C473.126 318.18 472.66 318.227 472.291 318.227H471.176C469.225 318.227 467.621 317.632 466.365 316.438C465.109 315.248 464.484 313.696 464.484 311.787V300.481C461.23 306.494 456.862 311.17 451.379 314.508C445.894 317.848 439.948 319.516 433.535 319.516Z" fill="#2C3792"/>
<path d="M524.15 313.076C526.66 313.076 529.353 312.553 532.236 311.502C535.114 310.454 537.814 308.998 540.321 307.137C542.831 305.277 544.944 303.153 546.665 300.769C548.384 298.384 549.382 295.807 549.663 293.04V268.569C548.64 265.899 547.175 263.345 545.271 260.913C543.365 258.478 541.202 256.382 538.788 254.615C536.37 252.851 533.769 251.443 530.982 250.392C528.193 249.344 525.498 248.818 522.894 248.818C518.712 248.818 514.925 249.749 511.535 251.61C508.14 253.47 505.212 255.904 502.751 258.908C500.286 261.913 498.405 265.348 497.103 269.211C495.802 273.077 495.154 277.061 495.154 281.161C495.154 285.455 495.895 289.512 497.384 293.325C498.868 297.143 500.937 300.531 503.587 303.489C506.236 306.446 509.302 308.783 512.787 310.499C516.273 312.218 520.06 313.076 524.15 313.076ZM522.894 319.516C517.876 319.516 513.228 318.443 508.954 316.296C504.679 314.149 500.984 311.287 497.871 307.709C494.757 304.132 492.341 300.03 490.623 295.402C488.902 290.777 488.042 285.98 488.042 281.018C488.042 275.867 488.881 270.953 490.552 266.28C492.224 261.607 494.546 257.502 497.523 253.969C500.496 250.443 504.006 247.628 508.049 245.528C512.091 243.429 516.529 242.378 521.361 242.378C524.52 242.378 527.518 242.856 530.355 243.81C533.187 244.765 535.79 246.028 538.162 247.602C540.531 249.175 542.693 251.015 544.644 253.111C546.595 255.21 548.269 257.455 549.663 259.84V213.613H556.634V308.067C556.634 310.454 557.609 311.645 559.56 311.645V318.085C559.095 318.18 558.676 318.227 558.306 318.227H557.191C555.144 318.227 553.497 317.562 552.242 316.224C550.986 314.891 550.361 313.411 550.361 311.787V303.201C547.384 308.162 543.411 312.122 538.439 315.081C533.468 318.038 528.286 319.516 522.894 319.516Z" fill="#2C3792"/>
<path d="M583.68 343.415C584.516 343.415 585.747 343.367 587.373 343.273C588.998 343.177 590.231 342.889 591.067 342.415C591.437 342.222 591.881 341.771 592.393 341.056C592.902 340.34 593.578 339.122 594.414 337.406C595.25 335.689 596.316 333.277 597.622 330.176C598.92 327.077 600.549 323.044 602.501 318.085L570.156 243.667H577.545L606.264 311.072L633.171 243.667H640L600.268 341.557C598.873 344.991 597.039 347.255 594.762 348.354C592.484 349.45 589.719 350 586.469 350H585.075C584.605 350 584.143 349.949 583.68 349.855V343.415Z" fill="#2C3792"/>
<path d="M106.651 305.157L108.214 317.444C108.214 318.588 109.117 319.516 110.232 319.516H127.872C128.987 319.516 129.889 318.588 129.889 317.444L131.452 305.157C131.452 304.013 130.549 303.085 129.435 303.085H108.669C107.555 303.085 106.651 304.013 106.651 305.157Z" fill="#2C3792"/>
<path d="M119.052 0.000549316C6.65192 0.000549316 -28.8039 97.8489 24.0166 170.567C72.6219 237.481 111.73 290.007 111.73 290.007H113.769C113.769 290.007 85.5461 237.481 50.4688 170.567C12.3495 97.8489 37.9379 0.000549316 119.052 0.000549316Z" fill="url(#paint1_linear_3_8)"/>
<path d="M119.052 0.000671387C200.165 0.000671387 225.754 97.8491 187.634 170.567C152.557 237.481 124.335 290.007 124.335 290.007H126.373C126.373 290.007 165.481 237.481 214.087 170.567C266.908 97.8491 231.451 0.000671387 119.052 0.000671387Z" fill="url(#paint2_linear_3_8)"/>
<path d="M119.052 0.000671387C82.4587 0.000671387 70.9156 97.8491 88.1123 170.567C103.936 237.481 116.668 290.007 116.668 290.007H119.052H121.435C121.435 290.007 134.167 237.481 149.991 170.567C167.188 97.8491 155.645 0.000671387 119.052 0.000671387Z" fill="url(#paint3_linear_3_8)"/>
</g>
<defs>
<linearGradient id="paint0_linear_3_8" x1="466.784" y1="185.145" x2="466.784" y2="0.000152588" gradientUnits="userSpaceOnUse">
<stop stop-color="#ED127B"/>
<stop offset="1" stop-color="#5E2590"/>
</linearGradient>
<linearGradient id="paint1_linear_3_8" x1="59.5258" y1="290.007" x2="59.5258" y2="0.000549316" gradientUnits="userSpaceOnUse">
<stop stop-color="#ED127B"/>
<stop offset="1" stop-color="#5E2590"/>
</linearGradient>
<linearGradient id="paint2_linear_3_8" x1="178.578" y1="290.007" x2="178.578" y2="0.000671387" gradientUnits="userSpaceOnUse">
<stop stop-color="#ED127B"/>
<stop offset="1" stop-color="#5E2590"/>
</linearGradient>
<linearGradient id="paint3_linear_3_8" x1="119.052" y1="290.007" x2="119.052" y2="0.000671387" gradientUnits="userSpaceOnUse">
<stop stop-color="#ED127B"/>
<stop offset="1" stop-color="#5E2590"/>
</linearGradient>
<clipPath id="clip0_3_8">
<rect width="640" height="350" fill="white"/>
</clipPath>
</defs>
</svg>
