<svg width="146" height="144" viewBox="0 0 146 144" fill="none" xmlns="http://www.w3.org/2000/svg">
<path d="M123.009 0H22.7794C10.1987 0 0 10.0588 0 22.4669V121.322C0 133.73 10.1987 143.788 22.7794 143.788H123.009C135.59 143.788 145.788 133.73 145.788 121.322V22.4669C145.788 10.0588 135.59 0 123.009 0Z" fill="#25D366"/>
<path fill-rule="evenodd" clip-rule="evenodd" d="M98.4071 46.2819C91.5733 39.5419 82.4615 35.9471 72.8941 35.9471C52.8482 35.9471 36.447 52.1233 36.447 71.8943C36.447 78.185 38.2694 84.4757 41.4585 89.8678L36.447 107.841L55.5818 102.899C61.0488 105.595 66.9715 107.392 72.8941 107.392C92.94 107.392 109.341 91.2158 109.341 71.4449C109.341 62.0088 105.241 53.022 98.4071 46.2819ZM72.8941 101.551C67.4271 101.551 61.96 100.203 57.4041 97.5066L56.4929 97.0572L45.1032 100.203L48.2923 89.4185L47.3812 88.0705C44.192 83.1277 42.8252 77.7357 42.8252 72.3436C42.8252 56.1674 56.4929 42.6872 72.8941 42.6872C81.0947 42.6872 88.3842 45.8326 94.3068 51.2247C100.229 57.0661 102.963 64.2555 102.963 72.3436C102.963 88.0705 89.7509 101.551 72.8941 101.551ZM89.2953 79.0837C88.3842 78.6343 83.8283 76.3876 82.9171 76.3876C82.0059 75.9383 81.5503 75.9383 81.0947 76.837C80.6391 77.7357 78.8168 79.533 78.3612 80.4317C77.9056 80.881 77.45 80.881 76.5388 80.881C75.6277 80.4317 72.8941 79.533 69.2494 76.3876C66.5159 74.141 64.6935 70.9956 64.2379 70.0969C63.7824 69.1982 64.2379 68.7489 64.6935 68.2995C65.1491 67.8502 65.6047 67.4009 66.0603 66.9515C66.5159 66.5022 66.5159 66.0529 66.9715 65.6035C67.4271 65.1542 66.9715 64.7048 66.9715 64.2555C66.9715 63.8062 65.1491 59.3128 64.2379 57.5154C63.7824 56.1674 62.8712 56.1674 62.4156 56.1674C61.96 56.1674 61.5044 56.1674 60.5932 56.1674C60.1376 56.1674 59.2265 56.1674 58.3153 57.0661C57.4041 57.9647 55.1262 60.2114 55.1262 64.7048C55.1262 69.1982 58.3153 73.2423 58.7709 74.141C59.2265 74.5903 65.1491 84.0264 74.2609 87.6211C82.0059 90.7665 83.3727 89.8678 85.195 89.8678C87.0174 89.8678 90.6621 87.6211 91.1177 85.8238C92.0289 83.5771 92.0289 81.7797 91.5733 81.7797C91.1177 79.533 90.2065 79.533 89.2953 79.0837Z" fill="white"/>
</svg>
