<svg width="162" height="162" viewBox="0 0 162 162" fill="none" xmlns="http://www.w3.org/2000/svg">
<path d="M118.098 97.0836C116.068 96.0559 106.181 91.2313 104.333 90.5428C102.485 89.8847 101.144 89.5404 99.7971 91.5705C98.4808 93.5499 94.6029 98.0809 93.4183 99.4022C92.2337 100.724 91.0693 100.825 89.0696 99.9287C87.0396 98.901 80.5545 96.7899 72.8544 89.8847C66.8402 84.5336 62.8358 77.9422 61.6461 75.9122C60.4614 73.9074 61.5144 72.7734 62.5168 71.7711C63.4382 70.8497 64.5469 69.4524 65.5746 68.2374C66.5516 67.0224 66.8655 66.2074 67.5793 64.8911C68.2374 63.4686 67.8982 62.3599 67.3971 61.3575C66.8959 60.3551 62.8611 50.4174 61.1752 46.4586C59.5654 42.5301 57.8796 43.0312 56.6392 43.0312C55.4799 42.9249 54.1333 42.9249 52.7918 42.9249C51.4502 42.9249 49.2581 43.4261 47.4103 45.3499C45.5625 47.3799 40.3431 52.2298 40.3431 62.0409C40.3431 71.8774 47.5672 81.3949 48.5696 82.8174C49.5973 84.1337 62.7801 104.384 83.0047 113.086C87.8293 115.116 91.5756 116.331 94.5017 117.334C99.3262 118.862 103.731 118.65 107.209 118.149C111.056 117.516 119.126 113.268 120.817 108.525C122.533 103.751 122.533 99.7971 122.032 98.901C121.53 97.9796 120.214 97.4784 118.184 96.5824L118.098 97.0836ZM81.4202 146.812H81.3139C69.3411 146.812 57.5049 143.567 47.1673 137.503L44.7424 136.055L19.4299 142.646L26.2339 118.017L24.5987 115.486C17.9263 104.86 14.3674 92.5982 14.3674 79.9976C14.3674 43.2439 44.4538 13.2637 81.4708 13.2637C99.4022 13.2637 116.225 20.25 128.881 32.9062C141.537 45.4562 148.524 62.2789 148.524 80.1039C148.473 116.832 118.412 146.812 81.4455 146.812H81.4202ZM138.505 23.2824C123.105 8.40881 102.855 0 81.3139 0C36.8854 0 0.70875 36.0197 0.683438 80.2862C0.683438 94.4207 4.374 108.211 11.4412 120.417L0 162L42.768 150.847C54.5535 157.201 67.8172 160.603 81.3189 160.628H81.3443C125.798 160.628 161.975 124.608 162 80.3115C162 58.8769 153.642 38.7028 138.404 23.5406L138.505 23.2824Z" fill="#FDFDFD"/>
</svg>
